<?xml version="1.0" standalone="no"?>
<svg viewBox="0 0 200 200" xmlns="http://www.w3.org/2000/svg">
  <path fill="#FA4D56" d="M32.1,-59.4C43.1,-49.1,54.7,-43.7,61.2,-34.6C67.8,-25.5,69.2,-12.8,69,-0.1C68.8,12.5,66.9,25,60,33.4C53,41.7,41,45.9,30.1,53.5C19.3,61,9.6,71.8,-0.7,73C-11,74.2,-22,65.7,-36.5,60.3C-50.9,54.8,-68.7,52.4,-72.9,42.9C-77.1,33.3,-67.7,16.7,-64.5,1.8C-61.4,-13,-64.6,-26.1,-61.1,-36.9C-57.7,-47.8,-47.6,-56.4,-36.3,-66.5C-25,-76.6,-12.5,-88.1,-1,-86.4C10.5,-84.6,21,-69.6,32.1,-59.4Z" transform="translate(100 100)" />
</svg>
